<svg width="283" height="58" viewBox="0 0 283 58" fill="none" xmlns="http://www.w3.org/2000/svg">
    <g clip-path="url(#clip0_95_3442)">
        <path
            d="M0.53125 5.30702C0.53125 2.66917 2.66966 0.530762 5.30751 0.530762H277.024C279.661 0.530762 281.8 2.66917 281.8 5.30702V52.0082C281.8 54.6461 279.661 56.7845 277.024 56.7845H5.30751C2.66966 56.7845 0.53125 54.6461 0.53125 52.0082V5.30702Z"
            fill="#EAF7FB" />
        <path
            d="M0.53125 5.30702C0.53125 2.66917 2.66966 0.530762 5.30751 0.530762H277.024C279.661 0.530762 281.8 2.66917 281.8 5.30702V52.0082C281.8 54.6461 279.661 56.7845 277.024 56.7845H5.30751C2.66966 56.7845 0.53125 54.6461 0.53125 52.0082V5.30702Z"
            stroke="#45C292" stroke-width="1.06139" />
        <path
            d="M0 3.18417C0 1.42561 1.42561 0 3.18417 0H74.2974V57.3151H3.18417C1.42561 57.3151 0 55.8896 0 54.1309V3.18417Z"
            fill="#1FB57C" />
        <path
            d="M49.7523 14.793H24.5442C23.8757 14.793 23.2345 15.0585 22.7617 15.5313C22.289 16.004 22.0234 16.6452 22.0234 17.3138V26.1366C22.0234 34.4426 26.0441 39.4764 29.4173 42.2366C33.0503 45.2081 36.6646 46.2164 36.8221 46.2589C37.0387 46.3179 37.2672 46.3179 37.4839 46.2589C37.6414 46.2164 41.2509 45.2081 44.8887 42.2366C48.2524 39.4764 52.2731 34.4426 52.2731 26.1366V17.3138C52.2731 16.6452 52.0075 16.004 51.5348 15.5313C51.062 15.0585 50.4208 14.793 49.7523 14.793ZM49.7523 26.1366C49.7523 31.977 47.6001 36.7177 43.3557 40.2247C41.5081 41.7463 39.4068 42.9302 37.1483 43.7223C34.9192 42.944 32.8439 41.781 31.0164 40.2862C26.7216 36.7728 24.5442 32.0132 24.5442 26.1366V17.3138H49.7523V26.1366ZM29.9545 30.8096C29.718 30.573 29.5851 30.2522 29.5851 29.9178C29.5851 29.5833 29.718 29.2626 29.9545 29.026C30.1911 28.7895 30.5118 28.6566 30.8463 28.6566C31.1807 28.6566 31.5014 28.7895 31.738 29.026L34.6275 31.9171L42.5585 23.9844C42.6757 23.8673 42.8147 23.7745 42.9677 23.7111C43.1207 23.6477 43.2847 23.615 43.4503 23.615C43.6158 23.615 43.7798 23.6477 43.9329 23.7111C44.0858 23.7745 44.2249 23.8673 44.342 23.9844C44.4591 24.1016 44.552 24.2406 44.6154 24.3936C44.6787 24.5466 44.7114 24.7106 44.7114 24.8762C44.7114 25.0418 44.6787 25.2057 44.6154 25.3588C44.552 25.5117 44.4591 25.6508 44.342 25.768L35.5192 34.5908C35.4022 34.708 35.2631 34.8009 35.1101 34.8643C34.9571 34.9278 34.7931 34.9604 34.6275 34.9604C34.4618 34.9604 34.2978 34.9278 34.1448 34.8643C33.9918 34.8009 33.8527 34.708 33.7357 34.5908L29.9545 30.8096Z"
            fill="white" />
        <path
            d="M100.272 39.8684C100.215 39.3417 99.9781 38.9316 99.56 38.6381C99.1459 38.3446 98.6071 38.1978 97.9438 38.1978C97.4774 38.1978 97.0774 38.2682 96.7437 38.4089C96.41 38.5497 96.1547 38.7406 95.9778 38.9819C95.8009 39.223 95.7104 39.4985 95.7065 39.8081C95.7065 40.0653 95.7647 40.2884 95.8813 40.4775C96.002 40.6664 96.1648 40.8272 96.3698 40.9599C96.5748 41.0885 96.802 41.1971 97.0513 41.2855C97.3005 41.374 97.5518 41.4483 97.805 41.5087L98.9629 41.7982C99.4293 41.9068 99.8776 42.0534 100.308 42.2384C100.742 42.4233 101.13 42.6565 101.472 42.9379C101.817 43.2194 102.091 43.5591 102.292 43.9571C102.493 44.3552 102.593 44.8215 102.593 45.3563C102.593 46.0799 102.408 46.7172 102.039 47.2679C101.669 47.8147 101.134 48.2429 100.434 48.5524C99.7389 48.858 98.8966 49.0108 97.9076 49.0108C96.9467 49.0108 96.1124 48.862 95.4049 48.5645C94.7013 48.267 94.1505 47.8328 93.7524 47.2619C93.3585 46.691 93.1454 45.9954 93.1133 45.1753H95.3144C95.3466 45.6055 95.4792 45.9633 95.7124 46.2488C95.9456 46.5342 96.2492 46.7473 96.6231 46.888C97.0011 47.0287 97.4232 47.0991 97.8895 47.0991C98.376 47.0991 98.8021 47.0267 99.168 46.882C99.5379 46.7332 99.8273 46.5282 100.036 46.2668C100.246 46.0015 100.352 45.6919 100.356 45.3381C100.352 45.0165 100.258 44.7512 100.073 44.5421C99.8876 44.3291 99.6283 44.1521 99.2946 44.0114C98.9649 43.8666 98.579 43.738 98.1367 43.6255L96.7317 43.2636C95.7144 43.0023 94.9104 42.6062 94.3193 42.0755C93.7324 41.5409 93.4389 40.8312 93.4389 39.9468C93.4389 39.2191 93.6359 38.5818 94.0299 38.035C94.4279 37.4883 94.9687 37.0642 95.6521 36.7626C96.3357 36.457 97.1095 36.3042 97.9739 36.3042C98.8504 36.3042 99.6183 36.457 100.278 36.7626C100.941 37.0642 101.462 37.4843 101.84 38.023C102.217 38.5577 102.412 39.1728 102.425 39.8684H100.272ZM104.588 48.8238V36.4731H112.621V38.3487H106.825V41.7017H112.204V43.5772H106.825V46.9484H112.669V48.8238H104.588ZM125.475 40.6403H123.219C123.156 40.2704 123.037 39.9428 122.864 39.6572C122.691 39.3678 122.476 39.1225 122.218 38.9216C121.962 38.7206 121.668 38.5697 121.339 38.4692C121.013 38.3647 120.66 38.3125 120.282 38.3125C119.612 38.3125 119.016 38.4813 118.497 38.8191C117.979 39.1528 117.573 39.6432 117.28 40.2905C116.986 40.9338 116.839 41.7197 116.839 42.6485C116.839 43.5933 116.986 44.3893 117.28 45.0366C117.577 45.6799 117.983 46.1663 118.497 46.496C119.016 46.8216 119.61 46.9844 120.277 46.9844C120.647 46.9844 120.993 46.9363 121.314 46.8398C121.64 46.7393 121.931 46.5925 122.189 46.3995C122.45 46.2066 122.668 45.9693 122.846 45.688C123.027 45.4065 123.151 45.0849 123.219 44.723L125.475 44.735C125.391 45.3221 125.207 45.8729 124.926 46.3874C124.649 46.9021 124.285 47.3564 123.835 47.7503C123.385 48.1404 122.857 48.4459 122.255 48.6671C121.652 48.8841 120.982 48.9927 120.246 48.9927C119.161 48.9927 118.193 48.7414 117.34 48.2389C116.488 47.7363 115.816 47.0107 115.326 46.0618C114.835 45.113 114.59 43.9752 114.59 42.6485C114.59 41.3177 114.838 40.18 115.332 39.2351C115.826 38.2863 116.5 37.5607 117.352 37.0581C118.204 36.5555 119.169 36.3042 120.246 36.3042C120.934 36.3042 121.573 36.4008 122.164 36.5937C122.755 36.7867 123.282 37.0701 123.745 37.444C124.206 37.8139 124.586 38.2682 124.885 38.807C125.186 39.3417 125.382 39.9527 125.475 40.6403ZM135.31 36.4731H137.547V44.5421C137.547 45.4265 137.338 46.2045 136.92 46.876C136.506 47.5473 135.923 48.0721 135.171 48.4499C134.419 48.8238 133.54 49.0108 132.535 49.0108C131.527 49.0108 130.646 48.8238 129.894 48.4499C129.142 48.0721 128.559 47.5473 128.145 46.876C127.731 46.2045 127.524 45.4265 127.524 44.5421V36.4731H129.762V44.3552C129.762 44.8697 129.874 45.328 130.099 45.7301C130.329 46.1322 130.65 46.4478 131.064 46.677C131.478 46.9021 131.968 47.0147 132.535 47.0147C133.102 47.0147 133.593 46.9021 134.007 46.677C134.425 46.4478 134.747 46.1322 134.972 45.7301C135.197 45.328 135.31 44.8697 135.31 44.3552V36.4731ZM139.979 48.8238V36.4731H144.611C145.559 36.4731 146.356 36.6379 146.999 36.9676C147.646 37.2973 148.134 37.7597 148.463 38.3547C148.798 38.9457 148.964 39.6352 148.964 40.4231C148.964 41.2152 148.796 41.9027 148.458 42.4856C148.124 43.0646 147.631 43.5129 146.981 43.8305C146.329 44.1441 145.529 44.3008 144.58 44.3008H141.281V42.4434H144.278C144.833 42.4434 145.288 42.3671 145.641 42.2142C145.996 42.0575 146.257 41.8303 146.426 41.5328C146.599 41.2313 146.685 40.8614 146.685 40.4231C146.685 39.9849 146.599 39.6111 146.426 39.3015C146.253 38.9879 145.989 38.7507 145.636 38.5899C145.281 38.4251 144.825 38.3426 144.267 38.3426H142.216V48.8238H139.979ZM146.359 43.2274L149.417 48.8238H146.92L143.916 43.2274H146.359ZM151.024 48.8238V36.4731H159.057V38.3487H153.261V41.7017H158.64V43.5772H153.261V46.9484H159.105V48.8238H151.024ZM165.552 48.8238V36.4731H170.183C171.132 36.4731 171.928 36.65 172.571 37.0038C173.218 37.3576 173.708 37.8441 174.037 38.4632C174.371 39.0784 174.538 39.7779 174.538 40.5619C174.538 41.3539 174.371 42.0575 174.037 42.6725C173.703 43.2877 173.211 43.7721 172.559 44.126C171.907 44.4757 171.106 44.6507 170.153 44.6507H167.083V42.8113H169.852C170.407 42.8113 170.861 42.7148 171.214 42.5218C171.568 42.3289 171.83 42.0635 171.999 41.7258C172.172 41.3881 172.258 41.0001 172.258 40.5619C172.258 40.1236 172.172 39.7377 171.999 39.404C171.83 39.0703 171.567 38.811 171.208 38.626C170.855 38.4371 170.398 38.3426 169.84 38.3426H167.789V48.8238H165.552ZM176.69 48.8238H174.302L178.65 36.4731H181.412L185.766 48.8238H183.378L180.079 39.006H179.983L176.69 48.8238ZM176.769 43.9812H183.281V45.7784H176.769V43.9812ZM185.288 36.4731H187.816L190.836 41.9369H190.957L193.979 36.4731H196.505L192.012 44.2164V48.8238H189.781V44.2164L185.288 36.4731ZM198.09 36.4731H200.828L204.494 45.4226H204.64L208.306 36.4731H211.044V48.8238H208.897V40.3388H208.782L205.369 48.7876H203.765L200.352 40.3206H200.237V48.8238H198.09V36.4731ZM213.48 48.8238V36.4731H221.513V38.3487H215.717V41.7017H221.097V43.5772H215.717V46.9484H221.561V48.8238H213.48ZM233.945 36.4731V48.8238H231.955L226.135 40.4111H226.033V48.8238H223.796V36.4731H225.797L231.611 44.8919H231.72V36.4731H233.945ZM235.84 38.3487V36.4731H245.694V38.3487H241.876V48.8238H239.657V38.3487H235.84Z"
            fill="#0A5438" />
        <path
            d="M98.248 24.552C97.224 24.552 96.3173 24.328 95.528 23.88C94.7387 23.4213 94.12 22.7653 93.672 21.912C93.224 21.048 93 20.0027 93 18.776C93 17.5387 93.24 16.4933 93.72 15.64C94.2107 14.776 94.8613 14.12 95.672 13.672C96.4827 13.224 97.3787 13 98.36 13C98.968 13 99.496 13.048 99.944 13.144C100.403 13.2293 100.781 13.336 101.08 13.464C101.389 13.5813 101.608 13.688 101.736 13.784L101.24 15.144C100.931 14.9413 100.531 14.776 100.04 14.648C99.5493 14.5093 99.0213 14.44 98.456 14.44C97.7093 14.44 97.0533 14.6107 96.488 14.952C95.9333 15.2827 95.5013 15.768 95.192 16.408C94.8827 17.048 94.728 17.8373 94.728 18.776C94.728 19.6507 94.8667 20.4133 95.144 21.064C95.4213 21.7147 95.832 22.2213 96.376 22.584C96.9307 22.9467 97.6133 23.128 98.424 23.128C98.8613 23.128 99.2293 23.1067 99.528 23.064C99.8267 23.0107 100.04 22.968 100.168 22.936V18.84H101.832V24.008C101.597 24.104 101.165 24.216 100.536 24.344C99.9173 24.4827 99.1547 24.552 98.248 24.552Z"
            fill="#0A5438" />
        <path
            d="M108.405 24.568C107.402 24.568 106.591 24.376 105.972 23.992C105.354 23.608 104.901 23.0853 104.613 22.424C104.325 21.7627 104.181 21.016 104.181 20.184V13.24H105.828V20.008C105.828 21.1067 106.069 21.9013 106.549 22.392C107.028 22.872 107.653 23.112 108.421 23.112C109.189 23.112 109.812 22.8667 110.292 22.376C110.772 21.8853 111.013 21.096 111.013 20.008V13.24H112.677V20.184C112.677 21.016 112.527 21.7627 112.229 22.424C111.941 23.0853 111.487 23.608 110.868 23.992C110.25 24.376 109.429 24.568 108.405 24.568Z"
            fill="#0A5438" />
        <path
            d="M113.998 24.328C114.563 22.7707 115.086 21.352 115.566 20.072C116.057 18.792 116.531 17.5973 116.99 16.488C117.459 15.3787 117.95 14.296 118.462 13.24H119.982C120.366 14.04 120.734 14.8507 121.086 15.672C121.438 16.4933 121.79 17.3467 122.142 18.232C122.494 19.1173 122.857 20.0613 123.23 21.064C123.614 22.0667 124.019 23.1547 124.446 24.328H122.654C122.494 23.848 122.329 23.3787 122.158 22.92C121.987 22.4507 121.827 21.992 121.678 21.544H116.702C116.542 21.992 116.377 22.4507 116.206 22.92C116.035 23.3787 115.87 23.848 115.71 24.328H113.998ZM117.134 20.2H121.23C121.038 19.6773 120.851 19.176 120.67 18.696C120.489 18.216 120.313 17.7627 120.142 17.336C119.971 16.8987 119.801 16.488 119.63 16.104C119.47 15.7093 119.315 15.3413 119.166 15C119.027 15.3413 118.878 15.7093 118.718 16.104C118.558 16.488 118.393 16.8987 118.222 17.336C118.051 17.7627 117.875 18.216 117.694 18.696C117.513 19.176 117.326 19.6773 117.134 20.2Z"
            fill="#0A5438" />
        <path
            d="M125.98 24.328V13.432C126.428 13.3253 126.924 13.2507 127.468 13.208C128.012 13.1547 128.508 13.128 128.956 13.128C130.524 13.128 131.718 13.4213 132.54 14.008C133.361 14.5947 133.772 15.4747 133.772 16.648C133.772 17.448 133.569 18.0933 133.164 18.584C132.769 19.0747 132.22 19.4373 131.516 19.672C131.708 19.9173 131.932 20.216 132.188 20.568C132.444 20.92 132.705 21.3093 132.972 21.736C133.249 22.152 133.516 22.584 133.772 23.032C134.028 23.48 134.252 23.912 134.444 24.328H132.62C132.342 23.7947 132.033 23.2613 131.692 22.728C131.361 22.184 131.03 21.6773 130.7 21.208C130.38 20.728 130.086 20.3227 129.82 19.992C129.713 19.992 129.606 19.9973 129.5 20.008C129.404 20.0187 129.302 20.024 129.196 20.024H127.628V24.328H125.98ZM127.628 18.68H128.812C129.473 18.68 130.044 18.632 130.524 18.536C131.014 18.4293 131.393 18.2267 131.66 17.928C131.926 17.6293 132.06 17.1973 132.06 16.632C132.06 16.088 131.926 15.6667 131.66 15.368C131.404 15.0693 131.046 14.8613 130.588 14.744C130.14 14.616 129.638 14.552 129.084 14.552C128.774 14.552 128.497 14.5627 128.252 14.584C128.006 14.6053 127.798 14.6267 127.628 14.648V18.68Z"
            fill="#0A5438" />
        <path
            d="M135.436 24.328C136.001 22.7707 136.524 21.352 137.004 20.072C137.494 18.792 137.969 17.5973 138.428 16.488C138.897 15.3787 139.388 14.296 139.9 13.24H141.419C141.803 14.04 142.171 14.8507 142.523 15.672C142.875 16.4933 143.228 17.3467 143.58 18.232C143.932 19.1173 144.294 20.0613 144.667 21.064C145.051 22.0667 145.457 23.1547 145.883 24.328H144.091C143.931 23.848 143.766 23.3787 143.596 22.92C143.425 22.4507 143.265 21.992 143.116 21.544H138.139C137.979 21.992 137.814 22.4507 137.644 22.92C137.473 23.3787 137.307 23.848 137.147 24.328H135.436ZM138.571 20.2H142.667C142.475 19.6773 142.289 19.176 142.108 18.696C141.926 18.216 141.75 17.7627 141.58 17.336C141.409 16.8987 141.238 16.488 141.068 16.104C140.908 15.7093 140.753 15.3413 140.604 15C140.465 15.3413 140.315 15.7093 140.155 16.104C139.995 16.488 139.83 16.8987 139.66 17.336C139.489 17.7627 139.313 18.216 139.132 18.696C138.95 19.176 138.763 19.6773 138.571 20.2Z"
            fill="#0A5438" />
        <path
            d="M147.417 24.328V13.24H148.745C149.129 13.6453 149.529 14.1093 149.945 14.632C150.372 15.144 150.804 15.688 151.241 16.264C151.678 16.84 152.105 17.4267 152.521 18.024C152.937 18.6107 153.326 19.1813 153.689 19.736C154.062 20.28 154.388 20.7867 154.665 21.256V13.24H156.313V24.328H154.921C154.665 23.8587 154.356 23.336 153.993 22.76C153.641 22.184 153.257 21.5813 152.841 20.952C152.425 20.3227 151.998 19.6987 151.561 19.08C151.124 18.4613 150.686 17.8747 150.249 17.32C149.822 16.7547 149.422 16.2533 149.049 15.816V24.328H147.417Z"
            fill="#0A5438" />
        <path d="M161.458 24.328V14.648H157.986V13.24H166.578V14.648H163.106V24.328H161.458Z" fill="#0A5438" />
        <path
            d="M168.261 24.328V13.24H175.109V14.648H169.909V17.832H174.533V19.208H169.909V22.92H175.493V24.328H168.261Z"
            fill="#0A5438" />
        <path d="M177.48 24.328V13.24H184.328V14.648H179.128V17.832H183.752V19.208H179.128V22.92H184.712V24.328H177.48Z"
            fill="#0A5438" />
        <path
            d="M189.642 24.44C189.194 24.44 188.704 24.4187 188.17 24.376C187.648 24.3333 187.157 24.2587 186.698 24.152V13.432C187.157 13.3253 187.658 13.2507 188.202 13.208C188.746 13.1547 189.242 13.128 189.69 13.128C190.917 13.128 191.989 13.3307 192.906 13.736C193.834 14.1413 194.56 14.76 195.082 15.592C195.605 16.424 195.866 17.4853 195.866 18.776C195.866 20.0453 195.605 21.1013 195.082 21.944C194.57 22.776 193.845 23.4 192.906 23.816C191.978 24.232 190.89 24.44 189.642 24.44ZM189.77 23.016C191.232 23.016 192.325 22.6427 193.05 21.896C193.776 21.1387 194.138 20.0987 194.138 18.776C194.138 17.4427 193.781 16.408 193.066 15.672C192.352 14.9253 191.269 14.552 189.818 14.552C189.402 14.552 189.077 14.5627 188.842 14.584C188.618 14.6053 188.453 14.6267 188.346 14.648V22.936C188.442 22.9467 188.597 22.9627 188.81 22.984C189.024 23.0053 189.344 23.016 189.77 23.016Z"
            fill="#0A5438" />
    </g>
    <defs>
        <clipPath id="clip0_95_3442">
            <rect width="282.33" height="57.3151" fill="white" />
        </clipPath>
    </defs>
</svg>